<svg xmlns="http://www.w3.org/2000/svg" version="1.1" xmlns:xlink="http://www.w3.org/1999/xlink" xmlns:svgjs="http://svgjs.dev/svgjs" width="2000" height="2250" viewBox="0 0 2000 2250"><g transform="matrix(1,0,0,1,3.410605131648481e-13,0)"><svg viewBox="0 0 320 360" data-background-color="#ffffff" preserveAspectRatio="xMidYMid meet" height="2250" width="2000" xmlns="http://www.w3.org/2000/svg" xmlns:xlink="http://www.w3.org/1999/xlink"><g id="tight-bounds" transform="matrix(1,0,0,1,0,0)"><svg viewBox="0 0 320 360" height="360" width="320"><g><svg></svg></g><g><svg viewBox="0 0 320 360" height="360" width="320"><g><path xmlns="http://www.w3.org/2000/svg" d="M20.961 227.22l3.726 4.658-1.863-6.056c-0.466-2.795-3.726 0.466-1.863 1.398M25.153 224.425c1.397 2.329 2.795 4.658 2.795 6.987 0 3.261 2.795 4.658 5.123 5.589-3.261-3.726-5.124-13.974-7.918-12.576M204.017 26.929c7.918 0 15.371-0.932 23.756 0.931 20.495 5.124 37.729 15.371 49.374 29.811l32.606 52.169c1.397 13.042 4.192 27.482 3.726 43.319 3.261 0 2.795-4.658 6.521-5.59-3.726 9.316-5.59 20.961-6.521 34.469-2.329-7.453 0-18.632 0.466-24.687-3.261 5.124-5.124 1.397-5.124-0.932 0.466-3.726-1.397-3.261-2.795-4.658-5.124-4.658-8.384-9.782-12.11-17.7 2.329-6.055 2.795-14.905-4.658-19.563-2.329-1.397-5.124-3.726-6.521-7.453-1.863-5.124-5.124-11.179-4.193-19.097 0.466-2.329-6.987 5.124-11.179 1.863-18.166-12.576-36.332-27.016-58.224-39.127-11.645 0-20.029-4.192-24.221-9.316-3.726-4.658-0.932-10.713 4.658-11.179 3.261 0 6.987-0.932 9.782 0.932 0.466-1.863 2.329-4.192 4.657-4.192M157.904 16.215l0.932 0.466c4.658 0.932 6.987 7.453 12.11 5.124 0 3.261 0.466 6.521-0.466 8.85-1.397 3.726-5.59 3.726-8.85 3.726-31.208-1.863-49.374 11.179-68.471 22.358-5.124 3.261-10.713 5.59-14.906 9.782-20.029 18.632-41.921 35.866-47.045 70.335l-4.192 38.195c-0.466 4.192-5.124 8.384-4.192 13.508l3.26 22.824c-3.261-3.261-5.124 0.932-4.192 2.795 0.466 1.397 2.329 6.055 5.124 1.863 3.726 6.987 7.453 20.495 12.576 26.55 15.837 18.632 36.332 35.4 53.101 52.169 4.192-0.932 7.453-0.932 8.384-3.727 1.397 2.795-1.397 5.59-3.726 6.056 7.453 4.658 15.837 8.85 27.016 9.781 14.44 0.932 27.948 3.261 40.524 6.522 6.521-1.863 13.042-2.795 20.029-3.261 2.329 0 3.726-3.726 6.521-4.658l0.466-4.658c2.795 4.192 2.329-1.397 0.466-4.192 3.261 2.795 4.192 5.124 5.589 6.987 0-1.397 3.726-6.521 3.727-0.466l0.931-6.055c1.397-0.932 1.863 5.124 3.261 0.931 1.397-4.192 4.192-0.932 6.987-2.329-0.932 1.863-0.466 5.59 2.794 3.261l3.727-3.261c2.329 5.59 6.055 3.261 7.918 2.329 20.495-13.042 40.99-28.413 60.553-43.784l-0.466 6.055 2.329-7.453c2.329 2.329 4.192 0.466 5.124-0.931 2.795-4.658 6.521-9.316 12.577-13.508-7.453 20.029-16.303 35.866-27.482 48.908l-4.658 5.59c0 3.261-0.932 7.453-4.658 7.918-1.863 0.466-5.59-0.932-8.384 1.863-1.397 1.863 3.261 5.59-0.466 2.795-3.261-2.329-6.521 0-10.248 0.932-2.795 0.932 1.863 3.726 2.795 5.589 0.932 1.863 1.863 3.726 1.398 6.056l-5.124-5.59c-6.055 3.261-9.782 9.316-14.906 13.974-2.329 1.863-1.397 5.124-1.397 7.918-3.261 0-6.987-0.932-8.85 0.932-1.397 1.863-0.932 4.658-0.932 7.453-4.658-0.466-5.124-7.453-9.315-6.056-4.192 0.932-8.85 1.397-12.577 3.727 2.795 5.59-4.658 2.329-3.726 3.26-6.987-4.192-13.042-7.453-20.495-4.658-15.837-5.124-35.4-2.795-49.84-0.931 0-2.329 0.466-4.658-0.466-5.124-0.932 2.329-3.726 1.397-3.26 1.397-8.85-6.055-17.7-9.782-27.016-14.905-8.384 0.932-16.303-3.261-18.632-5.59-6.521-6.055-13.974-2.795-20.029-4.192-13.042-3.261-17.7-16.769-19.098-26.084-0.932-4.658-4.658-6.521-6.055-6.056-6.055-19.563-15.371-37.263-22.824-55.429-1.863-4.658-1.397-9.316-1.397-14.44 2.329 0.932 4.658 0.466 4.192-2.794-2.329-15.371-7.918-27.016-13.974-38.195 3.261-15.837 3.726-34.469 11.179-48.443 6.521-12.576 18.632-19.098 27.016-29.811 2.795-3.726 2.795-8.85 5.59-12.11 9.316-9.316 18.632-19.098 28.879-27.482 4.658-3.726 10.247 0 17.234-1.397 2.329-8.384 11.645-15.837 20.495-13.508 3.726 0.932 11.179-8.85 13.508-9.782 3.726-1.397 1.863 3.726 1.863 6.987 8.85-6.987 20.961-10.713 32.14-14.906" fill="#0063db" fill-rule="nonzero" stroke="none" stroke-width="1" stroke-linecap="butt" stroke-linejoin="miter" stroke-miterlimit="10" stroke-dasharray="" stroke-dashoffset="0" font-family="none" font-weight="none" font-size="none" text-anchor="none" style="mix-blend-mode: normal" data-fill-palette-color="tertiary"></path></g><g transform="matrix(1,0,0,1,64,151.06467661691542)"><svg viewBox="0 0 192 57.87064676616916" height="57.87064676616916" width="192"><g><svg viewBox="0 0 192 57.87064676616916" height="57.87064676616916" width="192"><g><svg viewBox="0 0 192 57.87064676616916" height="57.87064676616916" width="192"><g><svg viewBox="0 0 192 57.87064676616916" height="57.87064676616916" width="192"><g><svg viewBox="0 0 192 57.87064676616916" height="57.87064676616916" width="192"><g><svg viewBox="0 0 192 57.87064676616916" height="57.87064676616916" width="192"><g transform="matrix(1,0,0,1,0,0)"><svg width="192" viewBox="0.45000001788139343 -25.450000762939453 120.59000396728516 36.349998474121094" height="57.87064676616916" data-palette-color="#0063db"><path d="M0.45-24.85L5.3-24.85 10.5-9.95Q10.85-8.95 11.15-8.03 11.45-7.1 11.7-5.9L11.7-5.9Q12-7.05 12.25-7.98 12.5-8.9 12.8-9.8L12.8-9.8 18.1-24.85 22.3-24.85 13.4 0.3 9.3 0.3 0.45-24.85ZM34.6-25.45L34.6-25.45Q38.55-25.45 40.6-23.33 42.65-21.2 42.65-17.25L42.65-17.25 42.65-5.15Q42.65-4 43.05-3.6 43.45-3.2 44.05-3.2L44.05-3.2Q44.5-3.2 45-3.33 45.5-3.45 45.95-3.65L45.95-3.65 46.85-0.8Q46-0.3 44.75 0.08 43.5 0.45 42.2 0.45L42.2 0.45Q40.8 0.45 39.75-0.28 38.7-1 38.4-2.95L38.4-2.95Q36.95-1.3 35.02-0.38 33.1 0.55 30.9 0.55L30.9 0.55Q27.95 0.55 25.97-1.18 24-2.9 24-5.95L24-5.95Q24-8.8 25.35-10.5 26.7-12.2 28.87-13.08 31.05-13.95 33.5-14.25 35.95-14.55 38.1-14.55L38.1-14.55 38.1-17.35Q38.1-19.4 37.25-20.7 36.4-22 34.05-22L34.05-22Q32.2-22 30.47-21.23 28.75-20.45 27.1-19.05L27.1-19.05 24.95-22.25Q27.05-23.85 29.52-24.65 32-25.45 34.6-25.45ZM38.1-9.6L38.1-11.1Q36.8-11.1 35.2-11 33.6-10.9 32.1-10.43 30.6-9.95 29.62-8.95 28.65-7.95 28.65-6.2L28.65-6.2Q28.65-4.65 29.75-3.93 30.85-3.2 32.4-3.2L32.4-3.2Q34.1-3.2 35.37-4.15 36.65-5.1 37.37-6.58 38.1-8.05 38.1-9.6L38.1-9.6ZM48.95-24.65L53.9-25.3Q54.25-24.45 54.47-23.58 54.7-22.7 54.8-21.8L54.8-21.8Q56.3-23.25 58.35-24.35 60.4-25.45 62.5-25.45L62.5-25.45Q65.3-25.45 66.95-24.33 68.59-23.2 69.34-21.23 70.09-19.25 70.09-16.65L70.09-16.65 70.09 0 65.55 0 65.55-15.45Q65.55-16.9 65.34-18.32 65.15-19.75 64.32-20.65 63.5-21.55 61.6-21.55L61.6-21.55Q60.5-21.55 59.27-21.08 58.05-20.6 56.97-19.88 55.9-19.15 55.1-18.35L55.1-18.35 55.1 0 50.6 0 50.6-17.65Q50.6-18.6 50.45-19.93 50.3-21.25 49.95-22.55 49.6-23.85 48.95-24.65L48.95-24.65ZM74.44-24.85L79.34-24.85Q80.49-21.7 81.59-18.53 82.69-15.35 83.79-12.05L83.79-12.05Q84.29-10.5 84.77-8.93 85.24-7.35 85.74-5.85L85.74-5.85Q86.19-7.4 86.69-8.95 87.19-10.5 87.64-12.05L87.64-12.05Q88.74-15.35 89.87-18.53 90.99-21.7 92.09-24.85L92.09-24.85 96.34-24.85 87.54 0.1Q86.94 1.7 86.07 3.6 85.19 5.5 84.02 7.15 82.84 8.8 81.27 9.85 79.69 10.9 77.64 10.9L77.64 10.9 75.79 10.9 75.79 7.35Q75.94 7.35 76.12 7.38 76.29 7.4 76.49 7.4L76.49 7.4Q78.54 7.4 79.89 6.18 81.24 4.95 82.09 3.2 82.94 1.45 83.54-0.15L83.54-0.15 74.44-24.85ZM109.44 0.65L109.44 0.65Q105.79 0.65 103.27-1.15 100.74-2.95 99.47-5.9 98.19-8.85 98.19-12.25L98.19-12.25Q98.19-15.65 99.57-18.68 100.94-21.7 103.54-23.58 106.14-25.45 109.74-25.45L109.74-25.45Q113.44-25.45 115.97-23.68 118.49-21.9 119.77-18.95 121.04-16 121.04-12.55L121.04-12.55Q121.04-9.1 119.69-6.1 118.34-3.1 115.74-1.23 113.14 0.65 109.44 0.65ZM109.49-2.7L109.49-2.7Q111.39-2.7 112.67-3.6 113.94-4.5 114.72-5.98 115.49-7.45 115.82-9.15 116.14-10.85 116.14-12.4L116.14-12.4Q116.14-14 115.87-15.7 115.59-17.4 114.87-18.85 114.14-20.3 112.87-21.2 111.59-22.1 109.69-22.1L109.69-22.1Q107.79-22.1 106.52-21.18 105.24-20.25 104.49-18.78 103.74-17.3 103.39-15.63 103.04-13.95 103.04-12.4L103.04-12.4Q103.04-10.9 103.37-9.2 103.69-7.5 104.42-6.03 105.14-4.55 106.39-3.63 107.64-2.7 109.49-2.7Z" opacity="1" transform="matrix(1,0,0,1,0,0)" fill="#0063db" class="undefined-text-0" data-fill-palette-color="primary" id="text-0"></path></svg></g></svg></g></svg></g></svg></g><g></g></svg></g></svg></g></svg></g></svg></g><defs></defs></svg><rect width="320" height="360" fill="none" stroke="none" visibility="hidden"></rect></g></svg></g></svg>